<svg width="20" height="18" viewBox="0 0 20 18" fill="none" xmlns="http://www.w3.org/2000/svg">
<path d="M11.26 0.380454C11.4165 0.268495 11.5997 0.199553 11.7911 0.18051C11.9826 0.161467 12.1758 0.19299 12.3512 0.271932C12.5267 0.350873 12.6785 0.474471 12.7912 0.630385C12.904 0.786298 12.9739 0.969071 12.994 1.16045L13 1.27445V16.8865C13.0001 17.0789 12.9496 17.268 12.8538 17.4348C12.7579 17.6017 12.6199 17.7405 12.4536 17.8373C12.2874 17.9342 12.0986 17.9857 11.9061 17.9868C11.7137 17.9879 11.5244 17.9384 11.357 17.8435L11.261 17.7815L4.68 13.0805H2C1.49542 13.0806 1.00943 12.89 0.639452 12.547C0.269471 12.2039 0.0428434 11.7336 0.00500021 11.2305L1.00268e-07 11.0805V7.08045C-0.000159579 6.57588 0.190406 6.08989 0.533497 5.71991C0.876588 5.34992 1.34684 5.1233 1.85 5.08545L2 5.08045H4.68L11.26 0.380454ZM17.667 3.86345C18.401 4.52001 18.9881 5.32405 19.3901 6.22303C19.7922 7.122 20 8.09568 20 9.08045C20 10.0652 19.7922 11.0389 19.3901 11.9379C18.9881 12.8369 18.401 13.6409 17.667 14.2975C17.5694 14.3865 17.4551 14.4553 17.3308 14.4999C17.2064 14.5445 17.0745 14.564 16.9426 14.5574C16.8106 14.5507 16.6813 14.5179 16.5621 14.461C16.4429 14.4041 16.3362 14.3241 16.2481 14.2257C16.1599 14.1272 16.0922 14.0123 16.0487 13.8876C16.0053 13.7628 15.987 13.6307 15.9949 13.4989C16.0028 13.367 16.0367 13.238 16.0948 13.1193C16.1528 13.0007 16.2338 12.8947 16.333 12.8075C16.8574 12.3385 17.277 11.7641 17.5642 11.1219C17.8515 10.4796 18 9.784 18 9.08045C18 7.60045 17.358 6.27045 16.333 5.35345C16.2338 5.26625 16.1528 5.16026 16.0948 5.04159C16.0367 4.92291 16.0028 4.79392 15.9949 4.66205C15.987 4.53019 16.0053 4.39806 16.0487 4.27331C16.0922 4.14856 16.1599 4.03366 16.2481 3.93524C16.3362 3.83682 16.4429 3.75683 16.5621 3.6999C16.6813 3.64297 16.8106 3.61022 16.9426 3.60354C17.0745 3.59687 17.2064 3.6164 17.3308 3.66101C17.4551 3.70562 17.5694 3.77443 17.667 3.86345ZM15.667 6.09945C16.0862 6.47452 16.4217 6.93379 16.6513 7.44728C16.881 7.96077 16.9998 8.51693 17 9.07945C17.0001 9.64231 16.8815 10.1989 16.6518 10.7127C16.4221 11.2266 16.0865 11.6862 15.667 12.0615C15.4774 12.2299 15.2308 12.3199 14.9773 12.3134C14.7237 12.3069 14.4821 12.2043 14.3014 12.0264C14.1206 11.8484 14.0143 11.6084 14.0038 11.355C13.9933 11.1016 14.0796 10.8537 14.245 10.6615L14.333 10.5715C14.743 10.2035 15 9.67245 15 9.08045C15.0002 8.56856 14.804 8.07609 14.452 7.70445L14.333 7.58945C14.2338 7.50225 14.1528 7.39626 14.0948 7.27759C14.0367 7.15891 14.0028 7.02992 13.9949 6.89805C13.987 6.76619 14.0053 6.63406 14.0487 6.50931C14.0922 6.38456 14.1599 6.26966 14.2481 6.17124C14.3362 6.07282 14.4429 5.99283 14.5621 5.9359C14.6813 5.87897 14.8106 5.84622 14.9426 5.83955C15.0745 5.83287 15.2064 5.8524 15.3308 5.89701C15.4551 5.94162 15.5694 6.01043 15.667 6.09945Z" fill="white"/>
</svg>
