<svg width="56" height="56" viewBox="0 0 56 56" fill="none" xmlns="http://www.w3.org/2000/svg">
<path d="M18.8983 8.141C16.2996 8.708 14.9241 11.7197 15.2163 16.1787C15.3056 17.4702 15.2916 17.3442 15.5593 18.9945C15.6713 19.6595 15.7466 20.2195 15.7308 20.2352C15.7168 20.258 15.2601 20.37 14.7298 20.496C11.1966 21.3097 8.59606 22.5347 7.03506 24.1185C5.98156 25.179 5.54056 26.166 5.55631 27.412C5.56331 28.1137 5.79606 28.8837 6.22131 29.624C6.58706 30.2592 7.89431 31.5507 8.75356 32.1335C10.5543 33.3445 11.1073 33.516 11.5991 33.0225C11.8091 32.8143 11.8528 32.7092 11.8528 32.4625C11.8528 31.9847 11.6883 31.7537 11.1283 31.4457C8.66256 30.079 7.37106 28.6597 7.37106 27.3C7.37106 26.8065 7.54256 26.3585 7.95381 25.8212C9.03706 24.3792 11.6516 23.0877 15.1551 22.2582C16.0808 22.0412 16.2611 22.0272 16.2611 22.183C16.2611 22.3842 17.0083 24.7747 17.4861 26.082L17.9638 27.3962L17.3741 28.525C17.0521 29.1445 16.5901 30.086 16.3503 30.625C12.9221 38.178 12.3533 44.1753 14.8331 46.641C15.4158 47.2238 15.8936 47.4933 16.6776 47.6945C18.4853 48.1583 20.8758 47.4635 23.5568 45.6925C24.4913 45.073 24.6996 44.8403 24.6996 44.4308C24.6996 43.9373 24.1623 43.4595 23.6828 43.5348C23.5481 43.5575 23.0248 43.848 22.5243 44.177C21.4183 44.9155 20.1793 45.5298 19.2816 45.7975C18.3628 46.067 17.3688 46.081 16.8018 45.8343C15.0606 45.0643 14.6581 41.958 15.7413 37.6478C16.2488 35.6003 17.4143 32.5238 18.4678 30.4237L18.8861 29.5802L19.1171 30.1035C19.5511 31.1045 21.2381 34.3682 21.8961 35.4812C25.5343 41.6657 29.6346 46.2 33.2728 48.0533C35.8506 49.3675 37.9786 49.2485 39.4276 47.7015C40.4951 46.5728 41.0183 44.9295 41.1076 42.4655C41.2493 38.2218 39.8668 32.7022 37.1631 26.7855C36.8043 25.9927 36.4456 25.277 36.3791 25.2017C36.2146 25.0232 35.7963 24.9025 35.5128 24.962C35.2293 25.0215 34.8846 25.3662 34.8338 25.6567C34.7743 25.9333 34.8408 26.1205 35.5058 27.5607C37.3591 31.5577 38.6576 35.756 39.1581 39.3628C39.3226 40.551 39.3523 43.127 39.2036 43.9198C39.0548 44.7195 38.7626 45.549 38.4493 46.0268C37.9488 46.7968 37.3731 47.11 36.4246 47.103C33.6088 47.096 29.1708 43.2267 25.2263 37.3538C23.4116 34.6413 21.7386 31.5787 20.4453 28.5845L19.9816 27.517L20.6308 26.4198C21.4673 25.0005 22.3493 23.6565 23.3346 22.274L24.1186 21.1767H25.3296C33.6368 21.1767 41.8828 23.0597 46.0968 25.9053C47.0611 26.5545 47.9868 27.5047 48.3088 28.161C48.5328 28.6247 48.5626 28.7507 48.5626 29.281C48.5556 29.7815 48.5258 29.939 48.3543 30.2662C47.8398 31.2673 46.5308 32.2612 44.7161 33.0522C43.8638 33.418 43.5961 33.6718 43.5961 34.1058C43.5961 34.5082 43.7606 34.8005 44.0738 34.9493C44.4168 35.1138 44.5376 35.098 45.0906 34.874C47.6981 33.8205 49.5793 32.2665 50.1708 30.6828C51.2611 27.769 48.9756 24.8255 43.9338 22.6292C39.5273 20.7025 33.0506 19.4985 26.3113 19.3567L25.5711 19.341L26.4146 18.3697C27.3858 17.241 29.5296 15.0972 30.4483 14.329C32.6288 12.4915 34.5801 11.326 36.2601 10.8482C37.0896 10.6085 38.1133 10.6172 38.6436 10.8552C39.3611 11.1772 39.8616 11.9017 40.1381 13.0217C40.3096 13.7007 40.3096 15.778 40.1381 16.779C39.9438 17.885 39.9666 18.0793 40.2658 18.3767C40.4828 18.5938 40.5721 18.6305 40.8853 18.6305C41.5503 18.6305 41.7218 18.3837 41.9231 17.1745C42.0281 16.555 42.0648 15.9635 42.0648 14.7472C42.0648 13.328 42.0421 13.0585 41.8933 12.4687C41.4226 10.6085 40.2728 9.324 38.7328 8.95825C35.1628 8.12175 29.7011 11.557 24.2708 18.0722C23.8228 18.6025 23.4046 19.1257 23.3363 19.215C23.2243 19.3795 23.1491 19.3935 22.0658 19.4618C21.4376 19.4985 20.2878 19.6035 19.5038 19.6927C17.4266 19.9325 17.5911 19.9535 17.4721 19.4163C17.1588 17.9148 17.0538 16.8612 17.0468 15.2337C17.0398 13.4715 17.0993 12.9482 17.4196 11.97C17.7626 10.9322 18.3453 10.2287 19.0856 9.98375C19.4443 9.856 20.3263 9.87175 20.8478 10.0065C21.7211 10.2375 22.9548 10.8955 24.0748 11.739C24.7398 12.2395 24.9708 12.3287 25.3226 12.2097C25.7251 12.082 25.9648 11.746 25.9648 11.3277C25.9648 11.0145 25.9351 10.955 25.6061 10.64C25.1423 10.192 23.7983 9.296 22.9846 8.89175C21.4463 8.12175 20.1006 7.875 18.8913 8.1375L18.8983 8.141ZM21.7001 21.378C21.6931 21.4147 21.2066 22.148 20.6326 23.0142C20.0586 23.8805 19.4898 24.7555 19.3708 24.9567L19.1538 25.3225L18.9753 24.8377C18.7513 24.248 18.0566 21.9625 18.0566 21.819C18.0566 21.6842 18.3856 21.6317 20.8198 21.378C21.3273 21.3255 21.7316 21.3255 21.7018 21.378H21.7001ZM27.3858 25.9945C26.8556 26.166 26.3393 26.5475 26.0331 27.0025C25.1143 28.3552 25.5623 30.1175 27.0043 30.8262C27.4523 31.0502 27.5643 31.073 28.1768 31.073C28.7893 31.073 28.9013 31.0502 29.3493 30.8262C31.2988 29.8707 31.2551 27.0322 29.2741 26.1205C28.7508 25.8807 27.9073 25.83 27.3841 25.9927L27.3858 25.9945Z" fill="#964BC8"/>
</svg>
