<svg width="28" height="18" viewBox="0 0 28 18" fill="none" xmlns="http://www.w3.org/2000/svg">
<path d="M12.5925 0.491877C12.1819 0.491877 11.8365 0.629448 11.4248 0.907164L1.85325 7.33188C1.15237 7.80116 0.798 8.37845 0.798 9.09331C0.798 9.81845 1.14337 10.3636 1.85325 10.8432L11.4248 17.2679C11.8365 17.5456 12.1897 17.6844 12.6015 17.6844C13.4228 17.6844 14.1056 16.9696 14.1056 15.6672V9.53045C14.2271 10.0434 14.5624 10.469 15.1226 10.8432L24.6953 17.2679C25.0969 17.5456 25.4513 17.6844 25.8619 17.6844C26.6831 17.6844 27.375 16.9696 27.375 15.6672V2.50788C27.375 1.20545 26.6843 0.490593 25.8619 0.490593C25.4513 0.490593 25.0969 0.629448 24.6953 0.907164L15.1226 7.33188C14.5714 7.70473 14.2271 8.14316 14.1056 8.66645V2.50788C14.1056 1.20545 13.4138 0.491877 12.5925 0.491877Z" fill="white"/>
</svg>
