<svg width="19" height="18" viewBox="0 0 19 18" fill="none" xmlns="http://www.w3.org/2000/svg">
<path d="M14.7139 17.3605C14.9098 17.3539 15.0982 17.2711 15.2498 17.1252L18.0717 14.33C18.4173 13.988 18.4173 13.4545 18.0717 13.1022L15.2498 10.2955C15.0982 10.1495 14.9098 10.0668 14.7139 10.0602C14.26 10.0602 13.9778 10.3919 13.9778 10.9255V12.5262H12.7069C11.8986 12.5262 11.3998 12.2266 10.8278 11.4372L9.15766 9.1216L10.8278 6.79446C11.4184 5.98446 11.8625 5.70546 12.662 5.70546H13.9778V7.34989C13.9778 7.87318 14.26 8.2036 14.7139 8.2036C14.9087 8.20117 15.0973 8.12245 15.2498 7.97989L18.0717 5.18346C18.4173 4.84146 18.4173 4.29632 18.0717 3.95561L15.2498 1.14889C15.1005 0.998489 14.9106 0.915133 14.7139 0.913605C14.26 0.913605 13.9778 1.24532 13.9778 1.7686V3.55061H12.6522C11.3091 3.55061 10.4734 3.98775 9.52078 5.3326L7.97641 7.47718L6.36969 5.22589C5.48922 4.0096 4.65359 3.55061 3.36516 3.55061H1.73C1.15031 3.55061 0.75 3.99803 0.75 4.62803C0.75 5.25803 1.14922 5.70546 1.73 5.70546H3.30172C4.06406 5.70546 4.57266 5.99475 5.14469 6.79446L6.80609 9.11003L5.14359 11.4372C4.56391 12.2382 4.10016 12.5262 3.34656 12.5262H1.73C1.15031 12.5262 0.75 12.9736 0.75 13.6036C0.75 14.2336 1.14922 14.681 1.73 14.681H3.41C4.69953 14.681 5.48922 14.2233 6.36969 13.0057L7.98625 10.7545L9.56562 12.9633C10.4647 14.2233 11.3452 14.681 12.6522 14.681H13.9778V16.4965C13.9778 17.03 14.26 17.3605 14.7139 17.3605Z" fill="white"/>
</svg>
