<svg width="18" height="18" viewBox="0 0 18 18" fill="none" xmlns="http://www.w3.org/2000/svg">
<path d="M1.73812 9.43018C1.86515 9.43137 1.99113 9.40382 2.1088 9.34912C2.22648 9.29442 2.33352 9.21366 2.42376 9.11148C2.51401 9.0093 2.58567 8.88772 2.63462 8.75376C2.68357 8.61979 2.70885 8.47607 2.709 8.33089V7.75489C2.709 6.46403 3.50325 5.59875 4.71712 5.59875H10.3477V7.34989C10.3477 7.87318 10.638 8.20361 11.1049 8.20361C11.3075 8.2039 11.5033 8.12031 11.6561 7.96832L14.5597 5.18346C14.9152 4.84146 14.9152 4.29632 14.5597 3.95561L11.6561 1.14889C11.5033 0.996898 11.3075 0.913314 11.1049 0.913605C10.638 0.913605 10.3489 1.24532 10.3489 1.76861V3.43232H4.85775C2.36362 3.43232 0.776245 5.04461 0.776245 7.56332V8.33089C0.776245 8.94032 1.206 9.43018 1.73812 9.43018ZM7.21012 17.0828C7.668 17.0828 7.95712 16.7523 7.95712 16.229V14.5537H13.4482C15.9514 14.5537 17.5297 12.9415 17.5297 10.4227V9.65518C17.5297 9.36363 17.4284 9.08402 17.248 8.87786C17.0676 8.67171 16.823 8.55589 16.5679 8.55589C16.3128 8.55589 16.0681 8.67171 15.8877 8.87786C15.7073 9.08402 15.606 9.36363 15.606 9.65518V10.2312C15.606 11.522 14.8027 12.3873 13.5889 12.3873H7.95712V10.6477C7.95712 10.1245 7.668 9.79403 7.21012 9.79403C7.00497 9.79344 6.80634 9.8764 6.64987 10.028L3.75525 12.8245C3.39075 13.1549 3.40087 13.6987 3.75525 14.0407L6.64987 16.859C6.80942 17.0032 7.00672 17.082 7.21012 17.0828Z" fill="white"/>
</svg>
