<svg width="28" height="18" viewBox="0 0 28 18" fill="none" xmlns="http://www.w3.org/2000/svg">
<path d="M15.4075 17.669C15.8181 17.669 16.1635 17.5315 16.5752 17.2537L26.1468 10.829C26.8476 10.3597 27.202 9.78246 27.202 9.0676C27.202 8.34246 26.8566 7.79731 26.1468 7.31774L16.5752 0.893027C16.1635 0.615313 15.8103 0.476456 15.3985 0.476456C14.5773 0.476456 13.8944 1.19131 13.8944 2.49374V8.63046C13.7729 8.11746 13.4376 7.69188 12.8774 7.31774L3.30475 0.893027C2.90312 0.615313 2.54875 0.476456 2.13812 0.476456C1.31687 0.476456 0.625 1.19131 0.625 2.49374V15.653C0.625 16.9555 1.31575 17.6703 2.13812 17.6703C2.54875 17.6703 2.90312 17.5315 3.30475 17.2537L12.8774 10.829C13.4286 10.4562 13.7729 10.0177 13.8944 9.49446V15.653C13.8944 16.9555 14.5862 17.669 15.4075 17.669Z" fill="white"/>
</svg>
