<svg width="36" height="36" viewBox="0 0 36 36" fill="none" xmlns="http://www.w3.org/2000/svg">
<path d="M4.21875 18C4.21875 14.4141 5.52656 11.1164 8.01562 8.46563C8.38828 8.06484 8.38125 7.425 7.9875 7.03828C7.80469 6.85547 7.55859 6.75 7.30547 6.75C7.03828 6.75 6.78516 6.8625 6.59531 7.05938C3.74766 10.1039 2.25 13.8797 2.25 18C2.25 22.1133 3.74766 25.8961 6.58828 28.9336C6.77812 29.1375 7.03125 29.25 7.30547 29.25C7.55859 29.25 7.80469 29.1516 7.9875 28.9758C8.17734 28.793 8.28984 28.5398 8.29688 28.2727C8.30391 27.9984 8.20547 27.7383 8.01562 27.5484C5.52656 24.8836 4.21875 21.5859 4.21875 18ZM29.4047 7.05938C29.2219 6.8625 28.9688 6.75 28.7016 6.75C28.4484 6.75 28.2023 6.84844 28.0195 7.02422C27.8297 7.20703 27.7172 7.46016 27.7102 7.72734C27.7031 8.00156 27.8016 8.26172 27.9914 8.45156C30.4734 11.1094 31.7883 14.407 31.7883 17.993C31.7883 21.5789 30.4805 24.8766 27.9914 27.5344C27.6187 27.9281 27.6258 28.568 28.0125 28.9547C28.1883 29.1375 28.4344 29.2359 28.6945 29.2359C28.9688 29.2359 29.2289 29.1234 29.4117 28.9125C32.2523 25.8891 33.75 22.1133 33.75 18C33.75 13.8867 32.2523 10.0969 29.4047 7.05938Z" fill="#964BC8"/>
<path d="M11.1937 24.4477C9.49922 22.7391 8.57109 20.468 8.57109 18.0563C8.57109 15.5953 9.54141 13.282 11.2992 11.5594C11.6859 11.1867 11.693 10.561 11.3133 10.1672C11.1305 9.97736 10.8773 9.87189 10.6102 9.87189C10.35 9.87189 10.1039 9.97032 9.92109 10.1531C7.78359 12.2484 6.60938 15.0539 6.60938 18.0563C6.60938 20.9813 7.74141 23.7445 9.79453 25.8328C9.98438 26.0227 10.2305 26.1281 10.4906 26.1281C10.7508 26.1281 10.9969 26.0227 11.1797 25.8328C11.3625 25.65 11.468 25.4039 11.468 25.1438C11.482 24.8836 11.3836 24.6375 11.1937 24.4477ZM26.0859 10.1602C25.9031 9.97736 25.6641 9.87892 25.3969 9.87892C25.1297 9.87892 24.8836 9.98439 24.6938 10.1672C24.3141 10.5469 24.3141 11.1727 24.7008 11.5594C26.4586 13.282 27.4219 15.532 27.4219 17.993C27.4219 20.3977 26.5008 22.732 24.8133 24.4477C24.4336 24.8274 24.4406 25.4531 24.8203 25.8328C25.0031 26.0156 25.2562 26.1211 25.5094 26.1211C25.7766 26.1211 26.0297 26.0156 26.2055 25.8328C28.2656 23.7445 29.3906 20.925 29.3906 18C29.3906 15.0117 28.2164 12.2695 26.0859 10.1602Z" fill="#964BC8"/>
<path d="M14.5617 12.8953C14.3789 12.7054 14.1258 12.6 13.8586 12.6C13.5984 12.6 13.3523 12.6984 13.1695 12.8883C11.7773 14.2594 11.0039 16.0945 11.0039 18.0422C11.0039 19.9476 11.7422 21.7476 13.0781 23.1117C13.268 23.3015 13.5141 23.407 13.7813 23.407C14.0414 23.407 14.2875 23.3086 14.4703 23.1258C14.6602 22.9429 14.7656 22.6969 14.7656 22.4297C14.7656 22.1625 14.6672 21.9164 14.4773 21.7265C13.507 20.7422 12.9727 19.4344 12.9727 18.0351C12.9727 16.6078 13.5352 15.2789 14.5477 14.2804C14.9273 13.9148 14.9344 13.289 14.5617 12.8953ZM22.9008 12.8812C22.718 12.6984 22.4789 12.6 22.2117 12.6C21.9445 12.6 21.6984 12.7054 21.5086 12.8883C21.1289 13.2679 21.1289 13.8937 21.5156 14.2804C22.5352 15.2859 23.0906 16.6219 23.0906 18.0422C23.0906 19.4344 22.5563 20.7492 21.5789 21.7336C21.3961 21.9164 21.2906 22.1695 21.2977 22.4297C21.2977 22.6898 21.4031 22.9359 21.5859 23.1187C21.7688 23.3015 22.0219 23.407 22.275 23.407C22.5352 23.407 22.7883 23.3015 22.9711 23.1117C24.3141 21.7476 25.0523 19.9476 25.0523 18.0422C25.0594 16.0875 24.293 14.2594 22.9008 12.8812ZM18 15.3281C16.5234 15.3281 15.3281 16.5234 15.3281 18C15.3281 19.4765 16.5234 20.6719 18 20.6719C19.4766 20.6719 20.6719 19.4765 20.6719 18C20.6719 16.5234 19.4695 15.3281 18 15.3281Z" fill="#964BC8"/>
</svg>
